<svg xmlns="http://www.w3.org/2000/svg" viewBox="0 0 1080 1080" preserveAspectRatio="xMidYMid meet">
  <defs>
    <clipPath id="__lottie_element_498">
      <rect width="1080" height="1080" x="0" y="0" />
    </clipPath>
  </defs>

  <g clip-path="url(#__lottie_element_498)">
    <g transform="matrix(1.19648,0,0,1.19648,515,95.093)">
      <g transform="translate(22.594,673.222)">
        <path fill="rgb(17,29,41)" fill-opacity="1"
          d="M0,-488.0335C269.3457,-488.0335,488.0335,-269.3457,488.0335,0S269.3457,488.0335,0,488.0335S-488.0335,269.3457,-488.0335,0S-269.3457,-488.0335,0,-488.0335z" />
      </g>
    </g>

    <g transform="matrix(4.16,0,0,4.16,410.114,956.584)">
      <path fill="rgb(175,116,35)" fill-opacity="1"
        d="M5.599,-26.093c0,0-27.289,13.214-16.477,52.186c0,0,5.774-19.591,24.289-24.663C13.411,1.43,5.599,-26.093,5.599,-26.093z" />
    </g>

    <g transform="matrix(4.16,0,0,4.16,669.454,956.584)">
      <path fill="rgb(175,116,35)" fill-opacity="1"
        d="M-5.599,-26.093c0,0,27.289,13.214,16.477,52.186c0,0-5.774-19.591-24.289-24.663C-13.411,1.43,-5.599,-26.093,-5.599,-26.093z" />
    </g>

    <g transform="matrix(4.16,0,0,4.16,538.043,980.484)">
      <path fill="rgb(193,86,28)" fill-opacity="1"
        d="M9.274,3.812H-9.274c-0.732,0-1.366-0.506-1.528-1.22l-1.018-4.491c-0.223-0.98,0.522-1.913,1.527-1.913h20.584c1.005,0,1.75,0.934,1.528,1.913l-1.018,4.491C10.64,3.305,10.006,3.812,9.274,3.812z" />
    </g>

    <g transform="matrix(4.16,0,0,4.16,539.272,773.397)">
      <path fill="rgb(253,253,253)" fill-opacity="1"
        d="M-27.063,7.415c0,0,2.848,26.139,11.646,42.701c0,0,13.975-6.729,30.538,0c0,0,10.093-13.975,12.163-44.772c1.193-17.744-0.231-38.004-6.108-55.46H-19.873C-25.337,-35.896,-29.227,-16.801,-27.063,7.415z" />
    </g>

    <g transform="matrix(4.16,0,0,4.16,541.978,502.499)">
      <path fill="rgb(193,86,28)" fill-opacity="1"
        d="M-3.826,-13.317C-7.955,-8.646,-15.034,0.716,-20.524,15.004H20.524C16.763,3.834,11.182,-6.19,3.283,-13.663C1.25,-15.586,-1.972,-15.414,-3.826,-13.317z" />
    </g>

    <g transform="matrix(4.16,0,0,4.16,538.043,929.249)">
      <path fill="rgb(175,116,35)" fill-opacity="1"
        d="M-0.311,-31.312c0,0-12.59,28.608-0.311,62.624C13.68,2.929,-0.311,-31.312,-0.311,-31.312z" />
    </g>

    <g transform="matrix(4.16,0,0,4.16,541.638,688.554)">
      <path fill="rgb(193,86,28)" fill-opacity="1"
        d="M15.838,0c0,8.747-7.091,15.838-15.838,15.838S-15.838,8.747,-15.838,0s7.091-15.838,15.838-15.838S15.838,-8.747,15.838,0z" />
    </g>

    <g transform="matrix(4.16,0,0,4.16,541.638,688.554)">
      <path fill="rgb(255,212,115)" fill-opacity="1"
        d="M10.995,0c0,6.072-4.923,10.995-10.995,10.995S-10.995,6.072,-10.995,0S-6.072,-10.995,0,-10.995S10.995,-6.072,10.995,0z" />
    </g>
  </g>
</svg>

